<svg width="468" height="340" viewBox="0 0 468 340" fill="none" xmlns="http://www.w3.org/2000/svg">
<path d="M244.752 329.017L449.081 212.574C455.586 209.055 461.167 203.269 454.826 199.48L249.76 85.5745C246.683 83.7363 242.015 82.5295 238.879 84.2889L24.3828 204.262C17.8776 207.905 16.7076 218.077 23.2128 221.72L217.819 328.791C221.901 331.082 226.531 332.308 231.255 332.348C235.978 332.387 240.63 331.239 244.752 329.017V329.017Z" fill="#F15A24"/>
<path opacity="0.32" d="M180.402 184.131L83.5848 233.719L60.0795 218.754L94.2201 197.958" fill="url(#paint0_linear)"/>
<path opacity="0.32" d="M320.72 274.748L288.463 292.838L267.497 280.421L301.977 259.173" fill="url(#paint1_linear)"/>
<path opacity="0.32" d="M302.738 231.644L252.428 263.73L179.361 217.818L224.535 190.785" fill="url(#paint2_linear)"/>
<path d="M107.944 76.3268C107.546 75.8306 101.802 68.6917 101.182 68.5451C100.562 68.3985 87.9606 75.0524 87.9606 75.0524V213.769L166 173.925V44.8167L107.944 76.3268Z" fill="#DD8C2A"/>
<path d="M230.712 14.8629C246.987 24.6858 287.925 47.5684 301.883 55.7674C305.042 57.6395 305.522 60.4251 305.581 64.0002V230.99C304.721 231.956 303.53 232.592 302.225 232.785C300.92 232.977 299.587 232.713 298.467 232.039L229.776 194.619C226.36 192.68 223.669 190.683 223.669 186.86L224.266 17.8853C224.23 14.2313 227.483 12.9231 230.712 14.8629Z" fill="#68E1FD"/>
<path d="M224.371 16.7012L246.706 29.1067V33.7532C246.711 34.1449 246.821 34.5287 247.026 34.8669C247.231 35.205 247.524 35.4858 247.876 35.6817L265.157 45.3016C265.39 45.4451 265.659 45.5248 265.935 45.5321C266.211 45.5394 266.484 45.474 266.725 45.343C266.965 45.212 267.164 45.0203 267.301 44.7884C267.437 44.5566 267.505 44.2935 267.497 44.0272V40.6439L299.941 58.9816C300.251 59.1568 300.509 59.4072 300.687 59.708C300.866 60.0087 300.959 60.3493 300.959 60.6958V227.697C300.951 227.931 300.881 228.159 300.754 228.358C300.628 228.558 300.45 228.723 300.238 228.836C300.026 228.95 299.787 229.009 299.544 229.007C299.301 229.005 299.063 228.942 298.853 228.825L223.646 186.917C223.519 188.213 223.761 189.517 224.344 190.691C224.927 191.865 225.83 192.864 226.957 193.582C230.853 195.973 299.309 233.313 299.309 233.313C299.309 233.313 304.727 235.671 306.329 229.445V61.4063C306.332 60.32 306.067 59.2486 305.556 58.2801C305.046 57.3116 304.304 56.4737 303.393 55.8351C300.257 53.6359 230.432 14.5133 230.432 14.5133C230.432 14.5133 225.482 12.3141 224.371 16.7012Z" fill="#124577"/>
<path opacity="0.32" d="M408.155 205.424L375.898 223.513L352.392 208.547L386.545 187.751" fill="url(#paint3_linear)"/>
<path d="M408.33 170.485C407.324 168.41 402.889 166.842 397.566 166.842C392.242 166.842 387.586 168.489 386.743 170.643C380.484 179.09 374.318 192.837 382.063 202.063C383.93 204.16 386.251 205.838 388.863 206.978C391.474 208.117 394.313 208.692 397.18 208.66H398.104C400.971 208.692 403.81 208.117 406.422 206.978C409.033 205.838 411.354 204.16 413.221 202.063C420.884 192.781 414.589 178.909 408.33 170.485Z" fill="#68E1FD"/>
<path opacity="0.5" d="M397.519 175.91C403.587 175.91 408.505 173.88 408.505 171.376C408.505 168.872 403.587 166.842 397.519 166.842C391.452 166.842 386.533 168.872 386.533 171.376C386.533 173.88 391.452 175.91 397.519 175.91Z" fill="black"/>
<path d="M410.342 132.862C403.564 143.942 399.402 156.325 398.151 169.132C398.149 153.644 396.672 138.188 393.74 122.96C393.635 122.419 392.781 122.645 392.886 123.186C396.162 140.215 397.609 157.524 397.203 174.838C397.201 174.904 397.216 174.97 397.246 175.029C397.276 175.088 397.321 175.139 397.376 175.178C397.431 175.217 397.496 175.242 397.564 175.252C397.631 175.261 397.7 175.255 397.765 175.233C397.765 175.357 397.765 175.481 397.765 175.616C397.765 175.73 397.812 175.839 397.895 175.919C397.978 176 398.092 176.045 398.21 176.045C398.327 176.045 398.441 176 398.524 175.919C398.607 175.839 398.654 175.73 398.654 175.616C398.963 160.713 403.255 146.139 411.115 133.302C411.175 133.203 411.192 133.086 411.163 132.975C411.133 132.864 411.059 132.768 410.957 132.71C410.854 132.652 410.732 132.635 410.617 132.664C410.502 132.692 410.403 132.764 410.342 132.862Z" fill="#2C9135"/>
<path d="M403.404 146.96C403.404 146.96 410.202 125.904 424.78 118.111C424.78 118.111 421.82 122.295 423.201 125.712C424.581 129.129 426.711 135.208 419.855 138.625C412.998 142.042 409.02 138.625 409.605 145.279C410.19 151.933 412.928 155.158 408.506 158.384C404.083 161.609 400.316 164.429 398.853 171.376C398.853 171.376 400.514 153.963 403.404 146.96Z" fill="#2C9135"/>
<path d="M396.934 144.738C396.934 144.738 394.114 112.382 388.206 104.205C388.656 107.332 388.075 110.516 386.545 113.307C383.982 117.987 381.244 119.611 382.719 125.712C384.193 131.813 390.195 130.595 389.622 136.697C389.048 142.798 384.052 141.648 386.545 149.339C389.037 157.031 397.554 162.106 397.554 162.106" fill="#2C9135"/>
<path d="M122.382 86.4542C122.382 86.4542 116.228 78.7853 115.584 78.6274C114.941 78.4696 102.363 85.1347 102.363 85.1347V223.964L180.402 184.12V54.9667L122.382 86.4542Z" fill="#F9AA43"/>
<path d="M158.699 79.3831L174.4 70.9247C176.377 69.8646 174.599 66.9437 172.634 68.0038L156.932 76.4621C154.955 77.5222 156.733 80.4432 158.699 79.3831Z" fill="#F2F2F2"/>
<path d="M118.439 176.462L171.499 149.181" stroke="#F2F2F2" stroke-width="1.015" stroke-miterlimit="10"/>
<path d="M118.439 183.432L171.499 157.211" stroke="#F2F2F2" stroke-width="1.015" stroke-miterlimit="10"/>
<path d="M118.439 191.326L171.499 165.105" stroke="#F2F2F2" stroke-width="1.015" stroke-miterlimit="10"/>
<path d="M118.439 199.649L172.154 171.996" stroke="#F2F2F2" stroke-width="1.015" stroke-miterlimit="10"/>
<path d="M160.108 129.32C163.869 116.248 160.285 103.878 152.103 101.69C143.921 99.5033 134.239 108.328 130.478 121.4C126.717 134.472 130.301 146.843 138.483 149.03C146.665 151.217 156.347 142.393 160.108 129.32Z" fill="white"/>
<path d="M151.869 121.165C153.309 116.159 151.71 111.362 148.298 110.449C144.886 109.537 140.952 112.856 139.512 117.861C138.072 122.867 139.67 127.664 143.083 128.577C146.495 129.489 150.429 126.17 151.869 121.165Z" fill="#124577"/>
<path d="M134.96 147.275C134.96 147.275 138.668 126.727 147.467 126.806C156.265 126.885 157.026 137.7 157.026 137.7C157.026 137.7 152.498 145.696 145.525 148.448C138.926 151.065 134.96 147.275 134.96 147.275Z" fill="#124577"/>
<path d="M242.225 112.844L278.46 133.088L278.753 80.9732L241.862 61.677L242.225 112.844Z" fill="white"/>
<path d="M261.416 97.1359C265.245 96.1122 267.038 90.7233 265.42 85.0994C263.802 79.4755 259.386 75.7463 255.557 76.77C251.727 77.7936 249.935 83.1826 251.553 88.8064C253.171 94.4303 257.587 98.1595 261.416 97.1359Z" fill="#124577"/>
<path d="M273.113 130.009C273.113 130.009 273.452 97.7433 258.008 94.5855C248.11 92.5555 245.466 114.66 245.466 114.66L273.113 130.009Z" fill="#124577"/>
<path d="M286.311 172.594L233.251 145.302C231.262 144.275 229.484 147.196 231.484 148.223L284.544 175.504C286.533 176.53 288.311 173.609 286.311 172.583V172.594Z" fill="#144975"/>
<path d="M286.311 179.552L233.251 153.331C231.251 152.339 229.472 155.26 231.485 156.252L284.544 182.473C286.545 183.466 288.323 180.545 286.311 179.552Z" fill="#144975"/>
<path d="M286.311 187.447L233.251 161.237C231.239 160.245 229.472 163.166 231.484 164.158L284.544 190.368C286.556 191.36 288.323 188.439 286.311 187.447Z" fill="#144975"/>
<path d="M286.311 195.77L232.608 168.128C230.619 167.102 228.84 170.023 230.841 171.049L284.544 198.691C286.533 199.717 288.311 196.796 286.311 195.77Z" fill="#144975"/>
<path d="M287.024 115.393C286.301 113.526 285.676 111.625 285.152 109.698C284.918 108.333 286.322 103.145 285.34 102.852C284.357 102.559 283.14 106.078 283.14 106.078C283.14 106.078 280.215 99.7169 279.419 99.4124C278.624 99.1079 276.249 98.9049 275.675 99.4801C275.102 100.055 273.523 103.766 274.225 105.029C275.744 107.281 277.392 109.449 279.162 111.525C279.419 111.716 282.497 118.1 282.906 118.291C283.316 118.483 286.72 116.814 287.024 115.393Z" fill="#FFC9B5"/>
<path d="M319.117 135.975C319.117 135.975 303.042 129.851 300.245 127.629C297.449 125.408 287.375 113.961 287.375 113.961C287.375 113.961 281.525 116.025 281.596 118.855C281.596 118.855 289.786 132.039 293.588 135.569C297.391 139.099 311.267 147.975 314.309 147.772C317.351 147.569 319.117 135.975 319.117 135.975Z" fill="#C93535"/>
<path d="M308.88 261.35C308.88 261.35 305.042 258.192 300.69 259.41C296.338 260.628 297.274 263.741 299.988 265.692C302.702 267.643 313.15 274.421 316.368 274.353C319.585 274.286 320.287 271.793 320.358 270.079C320.179 267.434 319.863 264.799 319.41 262.185" fill="#2C1D1A"/>
<path d="M311.22 261.17C311.204 261.285 311.162 261.396 311.096 261.494C311.03 261.592 310.943 261.675 310.84 261.736C310.737 261.798 310.621 261.837 310.5 261.85C310.38 261.863 310.258 261.85 310.144 261.812C308.976 261.456 307.832 261.034 306.716 260.549C306.716 260.549 303.007 260.549 305.265 264.124C307.523 267.699 315.303 268.748 317.702 267.417C320.1 266.087 318.497 262.297 318.497 262.297" fill="#2C1D1A"/>
<path d="M299.812 268.365C299.812 268.365 295.975 265.207 291.622 266.425C287.27 267.643 288.206 270.756 290.92 272.707C293.635 274.658 304.083 281.436 307.3 281.368C310.518 281.3 311.22 278.808 311.29 277.094C311.112 274.449 310.795 271.814 310.342 269.199" fill="#2C1D1A"/>
<path d="M302.199 268.117C302.183 268.232 302.141 268.343 302.075 268.441C302.009 268.539 301.922 268.622 301.819 268.683C301.716 268.745 301.6 268.784 301.48 268.797C301.359 268.81 301.238 268.797 301.123 268.759C299.956 268.403 298.811 267.981 297.695 267.496C297.695 267.496 293.986 267.496 296.244 271.071C298.502 274.647 306.283 275.695 308.681 274.365C311.08 273.034 309.477 269.244 309.477 269.244" fill="#FFC9B5"/>
<path d="M298.175 170.857C296.923 173.586 296.244 212.664 296.724 222.735C297.203 232.806 302.199 268.117 302.199 268.117C302.199 268.117 305.042 272.278 309.839 271.985C314.636 271.692 313.7 267.97 313.7 267.97C313.7 267.97 319.831 270.711 322.51 264.688C323.505 262.433 328.173 200.168 328.173 193.074C328.013 184.597 325.596 176.302 321.153 168.985" fill="#2C1D1A"/>
<path d="M313.712 267.993C313.712 267.993 316.625 189.048 316.251 186.714C315.877 184.379 317.047 204.025 316.965 209.393C316.918 213.228 314.508 262.613 313.712 267.993Z" fill="#6D5854"/>
<path d="M298.175 170.857C298.175 170.857 293.939 142.899 299.965 137.622C305.99 132.344 322.733 128.599 325.857 131.227C328.981 133.855 324.289 163.504 321.177 169.008C318.064 174.511 300.398 173.011 298.175 170.857Z" fill="#EA5353"/>
<path d="M305.803 117.051C305.663 117.446 302.691 128.329 307.874 129.907C313.057 131.486 314.098 125.52 314.613 125.182C315.128 124.844 316.754 124.314 316.672 123.107C316.59 121.9 314.625 121.878 314.625 121.878C314.625 121.878 313.864 118.72 311.536 117.367C309.208 116.013 305.803 117.051 305.803 117.051Z" fill="#FFC9B5"/>
<path d="M310.635 120.13C310.635 120.13 306.306 120.197 304.434 118.415C304.084 118.067 303.812 117.653 303.636 117.198C303.46 116.743 303.384 116.259 303.413 115.774C303.442 115.29 303.574 114.816 303.802 114.384C304.03 113.951 304.349 113.569 304.738 113.261C304.738 113.261 303.03 109.946 306.259 109.1C306.259 109.1 306.552 106.066 312.987 107.453C319.422 108.841 325.26 113.273 325.377 118.945C325.494 124.618 325.892 125.272 327.974 126.569C330.057 127.866 329.484 132.84 323.915 133.043C318.345 133.246 310.764 132.783 310.05 130.122C309.336 127.46 313.56 127.19 314.086 124.483C314.157 123.978 314.124 123.466 313.989 122.974C313.853 122.482 313.619 122.02 313.298 121.616C312.977 121.211 312.577 120.872 312.12 120.617C311.663 120.362 311.158 120.196 310.635 120.13V120.13Z" fill="#2C1D1A"/>
<path d="M289.809 166.831C289.809 166.831 285.351 171.41 284.064 171.906C282.094 172.775 280.2 173.797 278.402 174.962C279.003 175.499 279.534 176.105 279.981 176.767C279.982 176.789 279.982 176.812 279.981 176.834C280.554 176.44 280.952 176.146 280.94 176.349C280.94 176.992 276.553 182.496 275.886 183.33C275.219 184.165 277.056 186.894 277.056 186.894C279.887 187.808 283.152 185.045 285.246 183.172C287.34 181.3 288.311 176.97 289.037 176.406C289.762 175.842 295.741 172.041 296.162 170.857C296.583 169.673 289.809 166.831 289.809 166.831Z" fill="#FFC9B5"/>
<path d="M298.584 139.618C297.414 142.11 297.414 144.839 296.923 147.512C296.537 149.418 296.139 151.414 295.682 153.343C295.371 155.309 294.731 157.213 293.787 158.982C292.149 161.609 290.02 163.887 288.159 166.357C287.642 166.894 287.269 167.545 287.071 168.252C286.896 169.977 289.154 174.895 295.413 174.286C298.558 171.805 301.496 169.09 304.2 166.166C307.71 162.185 311.033 148.719 310.693 144.242C310.459 141.197 308.74 137.791 305.744 136.46C304.751 136.07 303.658 135.983 302.612 136.211C301.566 136.439 300.617 136.971 299.894 137.734C299.351 138.287 298.908 138.923 298.584 139.618V139.618Z" fill="#EA5353"/>
<path d="M298.935 171.331C298.935 171.331 304.165 167.045 305.452 164.463C306.739 161.88 308.412 157.234 308.412 157.234C308.412 157.234 305.99 170.665 303.673 172.459C302.062 172.222 300.476 171.845 298.935 171.331V171.331Z" fill="#2C1D1A"/>
<path d="M237.826 125.791L239.37 126.626C239.567 126.721 239.727 126.876 239.827 127.065C239.911 127.27 239.931 127.493 239.885 127.708C239.876 127.866 239.814 128.016 239.71 128.137C239.661 128.173 239.601 128.192 239.54 128.192C239.479 128.192 239.419 128.173 239.37 128.137L239.92 129.355L240.786 128.881C240.719 128.847 240.66 128.801 240.612 128.745C240.564 128.689 240.527 128.624 240.505 128.554C240.466 128.368 240.466 128.176 240.505 127.99C240.508 127.905 240.532 127.822 240.575 127.748C240.618 127.673 240.678 127.61 240.751 127.562C240.834 127.533 240.923 127.524 241.011 127.536C241.099 127.548 241.182 127.58 241.254 127.629L242.623 128.362C242.865 128.473 243.068 128.65 243.208 128.87C243.317 129.079 243.349 129.317 243.302 129.547C243.302 129.806 243.173 129.953 243.032 130.009C242.94 130.035 242.842 130.04 242.747 130.024C242.652 130.009 242.561 129.973 242.483 129.919L242.237 129.795L240.646 130.652L241.956 133.268L242.108 133.347C242.331 133.459 242.514 133.631 242.635 133.843C242.744 134.048 242.781 134.282 242.74 134.509C242.74 134.78 242.588 134.937 242.447 134.994C242.234 135.024 242.017 134.976 241.839 134.858V134.858L240.295 134.024C240.103 133.93 239.947 133.78 239.85 133.595C239.758 133.405 239.73 133.193 239.768 132.986C239.777 132.817 239.843 132.655 239.955 132.524C240.037 132.456 240.154 132.456 240.295 132.524L239.639 131.114L238.68 131.656C238.821 131.729 238.929 131.849 238.984 131.994C239.033 132.167 239.033 132.35 238.984 132.524C238.984 132.787 238.902 132.949 238.739 133.009C238.622 133.077 238.446 133.009 238.235 132.941L236.867 132.219C236.626 132.102 236.423 131.922 236.282 131.701C236.176 131.49 236.147 131.252 236.2 131.024C236.201 130.93 236.226 130.837 236.273 130.755C236.32 130.672 236.387 130.602 236.469 130.55C236.562 130.525 236.659 130.519 236.754 130.535C236.85 130.551 236.94 130.587 237.019 130.641L237.136 130.708L238.926 129.862L237.756 127.393L237.557 127.291C237.336 127.178 237.15 127.011 237.019 126.806C236.913 126.6 236.88 126.366 236.925 126.141C236.925 125.87 237.065 125.712 237.206 125.656C237.423 125.622 237.645 125.671 237.826 125.791V125.791Z" fill="#124577"/>
<path d="M255.317 134.937C255.556 135.062 255.766 135.231 255.937 135.434C256.116 135.652 256.251 135.901 256.335 136.167C256.548 136.048 256.793 135.997 257.037 136.02C257.292 136.041 257.54 136.114 257.763 136.234C258.296 136.491 258.713 136.929 258.933 137.464C259.141 138.13 259.169 138.836 259.015 139.516L258.593 142.133H258.687C258.873 142.226 259.022 142.377 259.108 142.561C258.983 142.696 258.905 142.866 258.886 143.046C258.827 143.257 258.827 143.478 258.886 143.689C258.797 143.714 258.703 143.718 258.612 143.703C258.521 143.687 258.434 143.651 258.359 143.599V143.599L257.271 143.024C257.169 142.968 257.081 142.891 257.014 142.798C256.963 142.717 256.942 142.621 256.955 142.527L257.587 138.637C257.645 138.388 257.645 138.13 257.587 137.881C257.563 137.788 257.519 137.702 257.459 137.626C257.399 137.55 257.323 137.487 257.236 137.441C257.16 137.378 257.062 137.343 256.961 137.343C256.86 137.343 256.763 137.378 256.686 137.441C256.502 137.664 256.392 137.935 256.37 138.219L255.984 140.644H256.078C256.265 140.736 256.414 140.887 256.499 141.073C256.578 141.278 256.598 141.5 256.558 141.715C256.558 141.986 256.429 142.155 256.3 142.212C256.213 142.236 256.121 142.241 256.032 142.225C255.942 142.209 255.858 142.174 255.785 142.121V142.121L254.697 141.535C254.59 141.482 254.497 141.405 254.428 141.309C254.377 141.228 254.357 141.133 254.37 141.039L255.001 137.148C255.055 136.895 255.055 136.634 255.001 136.381C254.979 136.291 254.937 136.206 254.879 136.132C254.82 136.058 254.747 135.997 254.662 135.952V135.952C254.587 135.895 254.495 135.863 254.399 135.863C254.303 135.863 254.21 135.895 254.136 135.952C253.941 136.17 253.826 136.444 253.808 136.731L253.422 139.144L253.516 139.2C253.7 139.29 253.849 139.437 253.937 139.618C254.015 139.823 254.036 140.045 253.995 140.26C253.995 140.531 253.867 140.7 253.738 140.757C253.609 140.813 253.422 140.757 253.176 140.644L251.725 139.866C251.513 139.764 251.338 139.603 251.222 139.403C251.13 139.194 251.105 138.962 251.152 138.738C251.154 138.648 251.176 138.559 251.217 138.477C251.257 138.395 251.315 138.323 251.386 138.264C251.453 138.224 251.53 138.203 251.608 138.203C251.687 138.203 251.764 138.224 251.831 138.264V138.264H251.924L252.474 134.881L252.381 134.825C252.19 134.733 252.037 134.582 251.948 134.396C251.868 134.191 251.848 133.969 251.889 133.753C251.889 133.483 252.018 133.325 252.147 133.257C252.275 133.189 252.463 133.257 252.72 133.37L253.586 133.832C253.73 133.896 253.849 134.003 253.925 134.137C253.97 134.295 253.97 134.463 253.925 134.622C254.11 134.476 254.342 134.397 254.58 134.396C254.877 134.501 255.133 134.69 255.317 134.937V134.937Z" fill="#124577"/>
<path d="M245.642 129.964L247.198 130.787C247.393 130.885 247.552 131.039 247.654 131.227C247.744 131.433 247.769 131.661 247.724 131.881C247.715 132.035 247.653 132.182 247.549 132.298C247.467 132.377 247.361 132.366 247.221 132.298L247.759 133.528L248.637 133.054C248.57 133.023 248.51 132.979 248.462 132.924C248.414 132.87 248.378 132.807 248.356 132.738C248.31 132.553 248.31 132.36 248.356 132.174C248.359 132.088 248.383 132.003 248.425 131.927C248.468 131.85 248.528 131.785 248.602 131.734C248.685 131.706 248.774 131.697 248.862 131.709C248.949 131.721 249.033 131.753 249.105 131.802L250.474 132.524C250.712 132.639 250.914 132.815 251.059 133.031C251.165 133.245 251.194 133.488 251.14 133.719C251.14 133.967 251.012 134.125 250.871 134.182C250.769 134.206 250.663 134.208 250.56 134.189C250.457 134.169 250.36 134.128 250.275 134.069L250.029 133.934L248.438 134.802L249.748 137.407L249.9 137.497C250.127 137.603 250.314 137.772 250.438 137.982C250.546 138.192 250.579 138.43 250.532 138.659C250.532 138.93 250.392 139.088 250.24 139.133C250.126 139.151 250.009 139.147 249.897 139.122C249.784 139.097 249.678 139.051 249.584 138.986L248.04 138.152C247.847 138.055 247.691 137.9 247.595 137.712C247.5 137.527 247.471 137.316 247.514 137.114C247.519 136.942 247.58 136.776 247.689 136.64C247.783 136.561 247.888 136.561 248.028 136.64L247.373 135.231L246.425 135.783C246.499 135.816 246.565 135.863 246.62 135.921C246.674 135.979 246.715 136.047 246.741 136.122C246.785 136.296 246.785 136.477 246.741 136.652C246.738 136.744 246.714 136.836 246.672 136.919C246.629 137.003 246.569 137.077 246.496 137.137C246.423 137.173 246.343 137.192 246.262 137.192C246.18 137.192 246.1 137.173 246.028 137.137V137.137L244.659 136.415C244.419 136.3 244.217 136.125 244.074 135.907C243.966 135.693 243.938 135.451 243.992 135.219C243.992 134.971 244.121 134.813 244.261 134.746C244.346 134.716 244.437 134.707 244.527 134.719C244.617 134.73 244.702 134.763 244.776 134.813V134.813L244.893 134.87L246.671 134.013L245.501 131.554L245.302 131.441C245.076 131.335 244.889 131.166 244.764 130.956C244.652 130.756 244.615 130.525 244.659 130.302C244.659 130.032 244.799 129.874 244.94 129.817C245.061 129.79 245.186 129.789 245.308 129.815C245.429 129.84 245.543 129.891 245.642 129.964V129.964Z" fill="#124577"/>
<path d="M276.845 146.576L278.46 147.444C278.703 147.558 278.91 147.733 279.057 147.952C279.16 148.163 279.192 148.399 279.15 148.629C279.147 148.721 279.121 148.811 279.074 148.891C279.027 148.972 278.961 149.04 278.881 149.091C278.788 149.121 278.688 149.129 278.591 149.116C278.493 149.102 278.4 149.067 278.32 149.012L278.214 148.956L278.881 152.508L280.566 150.253H280.461C280.251 150.146 280.08 149.981 279.969 149.779C279.863 149.573 279.83 149.339 279.876 149.114C279.876 148.843 280.016 148.685 280.156 148.629C280.366 148.598 280.58 148.646 280.753 148.764H280.812L282.321 149.565C282.564 149.678 282.771 149.853 282.918 150.072C283.021 150.283 283.053 150.519 283.011 150.749C283.007 150.842 282.981 150.934 282.934 151.016C282.888 151.098 282.822 151.169 282.742 151.223C282.649 151.248 282.552 151.253 282.457 151.238C282.361 151.222 282.271 151.186 282.192 151.132L282.075 151.076L278.46 155.711L278.752 155.858C278.995 155.973 279.201 156.148 279.349 156.365C279.455 156.579 279.487 156.82 279.443 157.053C279.443 157.324 279.302 157.482 279.162 157.538C278.954 157.572 278.74 157.528 278.565 157.414L275.769 155.925C275.526 155.812 275.319 155.637 275.172 155.418C275.06 155.21 275.027 154.97 275.079 154.741C275.079 154.459 275.207 154.301 275.359 154.245C275.462 154.225 275.569 154.225 275.671 154.247C275.774 154.268 275.871 154.31 275.956 154.369H276.015L277.009 154.899L277.84 153.828L276.67 148.099L276.565 148.042C276.356 147.939 276.185 147.778 276.073 147.58C275.973 147.372 275.94 147.14 275.98 146.914C275.98 146.644 276.12 146.486 276.26 146.429C276.467 146.412 276.674 146.464 276.845 146.576Z" fill="#124577"/>
<path d="M268.924 142.358H268.983L270.609 143.227C270.85 143.338 271.056 143.509 271.206 143.723C271.309 143.934 271.342 144.17 271.3 144.399C271.296 144.493 271.269 144.584 271.22 144.665C271.171 144.746 271.102 144.813 271.019 144.862C270.936 144.892 270.848 144.903 270.76 144.893C270.673 144.883 270.589 144.853 270.516 144.805V144.805L270.399 144.749L271.077 148.302L272.762 146.046H272.657C272.443 145.942 272.267 145.776 272.154 145.572C272.057 145.364 272.029 145.132 272.072 144.907C272.072 144.636 272.161 144.478 272.341 144.433C272.444 144.415 272.55 144.417 272.652 144.438C272.754 144.459 272.852 144.5 272.938 144.557V144.557L274.435 145.358C274.686 145.47 274.898 145.65 275.044 145.877C275.15 146.083 275.179 146.318 275.125 146.542C275.125 146.637 275.101 146.729 275.054 146.812C275.007 146.895 274.939 146.965 274.856 147.016C274.771 147.044 274.68 147.053 274.591 147.042C274.501 147.03 274.416 146.998 274.342 146.948V146.948L274.225 146.892L270.609 151.583L270.902 151.741C271.143 151.853 271.346 152.029 271.487 152.249C271.595 152.466 271.628 152.711 271.58 152.948C271.58 153.207 271.44 153.377 271.3 153.422C271.186 153.44 271.069 153.436 270.957 153.411C270.844 153.386 270.738 153.34 270.644 153.275L267.836 151.775C267.594 151.661 267.387 151.486 267.24 151.268C267.137 151.057 267.104 150.82 267.146 150.591C267.146 150.32 267.286 150.162 267.427 150.106C267.635 150.072 267.849 150.116 268.024 150.23V150.23L269.018 150.76L269.837 149.7L268.667 143.96H268.562C268.348 143.855 268.172 143.69 268.059 143.486C267.958 143.282 267.93 143.053 267.977 142.832C267.977 142.561 268.105 142.392 268.258 142.347C268.363 142.304 268.477 142.282 268.592 142.284C268.707 142.286 268.82 142.311 268.924 142.358V142.358Z" fill="#124577"/>
<path d="M263.121 139.099C263.361 139.222 263.572 139.39 263.741 139.595C263.917 139.816 264.051 140.064 264.139 140.328C264.355 140.219 264.599 140.172 264.841 140.193C265.096 140.214 265.343 140.287 265.567 140.407V140.407C266.103 140.655 266.521 141.091 266.737 141.625C266.94 142.296 266.969 143.005 266.819 143.689L266.397 146.294H266.479C266.668 146.384 266.817 146.536 266.9 146.723C266.986 146.922 267.01 147.142 266.971 147.354C266.971 147.636 266.842 147.794 266.713 147.873C266.585 147.952 266.397 147.873 266.152 147.76L265.064 147.174C264.957 147.124 264.867 147.046 264.806 146.948C264.788 146.907 264.778 146.863 264.778 146.819C264.778 146.774 264.788 146.73 264.806 146.689L265.426 142.787C265.487 142.538 265.487 142.28 265.426 142.031C265.401 141.938 265.355 141.85 265.293 141.775C265.23 141.699 265.152 141.636 265.064 141.591C264.991 141.535 264.9 141.504 264.806 141.504C264.712 141.504 264.622 141.535 264.549 141.591C264.361 141.816 264.25 142.092 264.233 142.381L263.835 144.794H263.929C264.113 144.89 264.26 145.04 264.35 145.223C264.434 145.427 264.454 145.65 264.408 145.866C264.408 146.148 264.28 146.305 264.151 146.373C264.022 146.441 263.835 146.373 263.578 146.272L262.49 145.685C262.386 145.632 262.297 145.554 262.232 145.46C262.173 145.382 262.148 145.284 262.162 145.189L262.794 141.287C262.855 141.038 262.855 140.78 262.794 140.531C262.77 140.44 262.728 140.354 262.67 140.278C262.612 140.203 262.538 140.139 262.454 140.091C262.375 140.029 262.276 139.995 262.174 139.995C262.071 139.995 261.972 140.029 261.893 140.091C261.705 140.316 261.594 140.592 261.577 140.881L261.179 143.294H261.273C261.459 143.388 261.607 143.538 261.694 143.723C261.782 143.926 261.803 144.151 261.752 144.366C261.752 144.636 261.624 144.805 261.495 144.873C261.406 144.897 261.312 144.901 261.221 144.886C261.13 144.87 261.044 144.835 260.969 144.783V144.783L259.518 144.016C259.305 143.915 259.13 143.753 259.015 143.554C258.955 143.343 258.955 143.121 259.015 142.911C259.031 142.734 259.114 142.57 259.249 142.448C259.323 142.406 259.408 142.383 259.494 142.383C259.581 142.383 259.666 142.406 259.74 142.448H259.834L260.372 139.065H260.278C260.086 138.971 259.933 138.816 259.845 138.625C259.755 138.419 259.731 138.191 259.775 137.971C259.775 137.712 259.904 137.543 260.033 137.486C260.122 137.462 260.215 137.458 260.306 137.474C260.397 137.489 260.484 137.524 260.559 137.576V137.576L261.425 138.039C261.571 138.1 261.691 138.207 261.764 138.343C261.813 138.501 261.813 138.67 261.764 138.828C261.948 138.68 262.179 138.596 262.419 138.591C262.698 138.694 262.941 138.87 263.121 139.099V139.099Z" fill="#124577"/>
<defs>
<linearGradient id="paint0_linear" x1="101.93" y1="220.603" x2="87.121" y2="237.285" gradientUnits="userSpaceOnUse">
<stop stop-color="#5B1D5C"/>
<stop offset="1" stop-color="#F15A24"/>
</linearGradient>
<linearGradient id="paint1_linear" x1="13833" y1="8407.6" x2="13347.5" y2="9139.88" gradientUnits="userSpaceOnUse">
<stop stop-color="#5B1D5C"/>
<stop offset="1" stop-color="#F15A24"/>
</linearGradient>
<linearGradient id="paint2_linear" x1="26326.5" y1="14035" x2="25401.1" y2="16350" gradientUnits="userSpaceOnUse">
<stop stop-color="#5B1D5C"/>
<stop offset="1" stop-color="#F15A24"/>
</linearGradient>
<linearGradient id="paint3_linear" x1="384.38" y1="203.213" x2="366.723" y2="220.688" gradientUnits="userSpaceOnUse">
<stop offset="0.01" stop-color="#A91D5C"/>
<stop offset="1" stop-color="#F15A24"/>
</linearGradient>
</defs>
</svg>
