<?xml version="1.0" encoding="UTF-8"?>
<svg xmlns="http://www.w3.org/2000/svg" xmlns:xlink="http://www.w3.org/1999/xlink" width="312.44pt" height="85.35pt" viewBox="0 0 312.44 85.35" version="1.1">
<defs>
<clipPath id="clip1">
  <path d="M 0 0 L 89 0 L 89 85.351563 L 0 85.351563 Z M 0 0 "/>
</clipPath>
<clipPath id="clip2">
  <path d="M 228 0 L 312.441406 0 L 312.441406 72 L 228 72 Z M 228 0 "/>
</clipPath>
</defs>
<g id="surface1">
<g clip-path="url(#clip1)" clip-rule="nonzero">
<path style=" stroke:none;fill-rule:nonzero;fill:rgb(0%,46.273804%,66.273499%);fill-opacity:1;" d="M 45.582031 80.316406 C 45.421875 80.699219 44.707031 80.722656 44.492188 80.722656 L 4.710938 80.722656 L 38.835938 5.835938 C 39.183594 5.121094 39.574219 4.878906 40.375 4.878906 L 57.828125 4.878906 C 58.183594 4.878906 58.664063 5.085938 58.871094 5.523438 L 68.246094 27.035156 L 68.4375 27.476563 C 68.566406 27.78125 68.621094 27.976563 68.621094 28.175781 C 68.621094 28.390625 68.546875 28.648438 68.402344 28.972656 L 68.34375 29.09375 C 67.460938 31.109375 52.207031 65.421875 47.195313 76.699219 Z M 84.40625 63.894531 C 84.40625 64.605469 84.238281 65.175781 83.886719 65.660156 C 83.414063 66.355469 82.597656 66.800781 81.8125 66.800781 L 56.558594 66.8125 L 71.265625 33.71875 L 78.324219 49.34375 C 81.851563 57.15625 84.019531 61.953125 84.042969 62 C 84.285156 62.660156 84.40625 63.300781 84.40625 63.894531 M 72.367188 25.132813 L 62.972656 3.578125 C 61.964844 1.4375 59.898438 -0.00390625 57.828125 -0.00390625 L 40.375 -0.00390625 C 37.933594 -0.00390625 35.941406 1.359375 34.769531 3.84375 L 0.449219 79.136719 C -0.207031 80.734375 -0.140625 82.285156 0.625 83.496094 C 1.363281 84.675781 2.667969 85.351563 4.210938 85.351563 L 44.492188 85.351563 C 46.886719 85.351563 48.84375 84.179688 49.722656 82.214844 L 54.5 71.445313 L 81.605469 71.414063 C 81.707031 71.417969 81.816406 71.421875 81.921875 71.421875 C 84.085938 71.421875 86.253906 70.242188 87.574219 68.347656 C 89.097656 66.1875 89.351563 63.359375 88.277344 60.351563 "/>
</g>
<path style=" stroke:none;fill-rule:nonzero;fill:rgb(0%,46.273804%,66.273499%);fill-opacity:1;" d="M 216.761719 4.761719 C 217.03125 4.761719 217.265625 4.863281 217.464844 5.074219 C 217.847656 5.457031 218.070313 6.234375 218.070313 7.15625 L 218.050781 64.117188 C 218.050781 66.238281 216.3125 66.40625 216.292969 66.40625 L 183.3125 66.40625 C 182.855469 66.40625 182.011719 65.40625 182.011719 63.988281 L 182.011719 7.105469 C 181.980469 6.230469 182.160156 5.535156 182.492188 5.164063 C 182.734375 4.917969 183.09375 4.800781 183.585938 4.800781 Z M 216.726563 -0.00390625 L 183.558594 -0.00390625 C 181.917969 0.0195313 180.375 0.730469 179.214844 1.988281 C 178.097656 3.207031 177.484375 4.957031 177.484375 6.917969 L 177.484375 63.988281 C 177.484375 67.390625 179.824219 71.03125 183.3125 71.03125 L 216.292969 71.03125 C 219.3125 71.03125 222.570313 68.386719 222.570313 64.121094 L 222.597656 7.15625 C 222.597656 4.382813 221.546875 2.71875 220.660156 1.808594 C 219.539063 0.636719 218.144531 -0.00390625 216.726563 -0.00390625 "/>
<g clip-path="url(#clip2)" clip-rule="nonzero">
<path style=" stroke:none;fill-rule:nonzero;fill:rgb(0%,46.273804%,66.273499%);fill-opacity:1;" d="M 269.082031 64.113281 C 269.082031 65.78125 267.285156 66.371094 266.824219 66.371094 L 234.804688 66.371094 C 234.304688 66.371094 233.957031 66.242188 233.679688 65.957031 C 233.277344 65.539063 233.03125 64.777344 233.03125 63.964844 L 233.03125 7.5 C 233.03125 6.457031 233.402344 4.714844 235.914063 4.714844 L 241.21875 4.71875 C 249.957031 4.722656 266.453125 4.722656 266.917969 4.730469 L 267.039063 4.734375 C 267.171875 4.734375 267.300781 4.726563 267.363281 4.714844 L 269.097656 4.714844 Z M 307.917969 7.136719 C 307.917969 7.753906 307.761719 8.425781 307.46875 9.085938 L 292.328125 43.40625 C 290.980469 46.402344 287.910156 46.851563 286.203125 46.851563 L 273.601563 46.878906 L 273.628906 4.714844 L 305.644531 4.710938 C 306.347656 4.8125 307.121094 5.007813 307.5625 5.722656 C 307.792969 6.132813 307.917969 6.621094 307.917969 7.136719 M 311.417969 3.316406 C 310.230469 1.328125 308.171875 0.117188 305.757813 -0.00390625 L 235.914063 -0.00390625 C 230.828125 -0.00390625 228.515625 3.882813 228.515625 7.5 L 228.515625 63.964844 C 228.515625 66.019531 229.226563 67.9375 230.472656 69.226563 C 231.597656 70.394531 233.089844 71.011719 234.78125 71.011719 L 266.824219 71.011719 C 269.664063 71.011719 273.59375 68.613281 273.59375 64.113281 L 273.601563 51.5 L 286.210938 51.484375 C 288.449219 51.484375 293.921875 50.886719 296.4375 45.339844 L 311.601563 10.992188 C 312.777344 8.308594 312.710938 5.441406 311.417969 3.316406 "/>
</g>
<path style=" stroke:none;fill-rule:nonzero;fill:rgb(0%,46.273804%,66.273499%);fill-opacity:1;" d="M 99.507813 6.964844 C 99.507813 5.214844 100.160156 4.617188 102.078125 4.617188 C 102.136719 4.617188 106.828125 4.636719 112.59375 4.65625 C 121.816406 4.691406 133.785156 4.734375 133.964844 4.734375 C 134.019531 4.734375 134.070313 4.730469 134.128906 4.730469 L 135.550781 4.730469 L 135.539063 64.234375 C 135.539063 66.324219 133.808594 66.496094 133.789063 66.496094 L 100.792969 66.496094 C 100.0625 66.496094 99.507813 65.691406 99.507813 64.625 Z M 146.148438 46.855469 L 140.0625 46.855469 L 140.070313 27.980469 L 155.304688 27.980469 C 155.546875 27.980469 155.773438 28.121094 155.921875 28.34375 C 156.023438 28.503906 156.0625 28.660156 156.0625 28.871094 C 156.0625 29.0625 156.027344 29.265625 155.953125 29.445313 L 155.859375 29.683594 C 154.605469 32.808594 151.46875 40.523438 149.414063 44.726563 C 148.371094 46.855469 148.371094 46.855469 146.148438 46.855469 M 166.699219 5.386719 C 166.699219 5.519531 166.683594 5.625 166.65625 5.691406 L 160.3125 19.703125 C 158.742188 23.441406 158.605469 23.441406 155.039063 23.441406 L 140.074219 23.441406 L 140.09375 4.730469 L 166.089844 4.730469 C 166.265625 4.730469 166.496094 4.765625 166.605469 4.992188 C 166.671875 5.089844 166.699219 5.214844 166.699219 5.386719 M 166.449219 -0.00390625 L 102.078125 -0.00390625 C 97.757813 -0.00390625 94.964844 2.730469 94.964844 6.964844 L 94.964844 64.625 C 94.964844 68.277344 97.527344 71.136719 100.792969 71.136719 L 133.789063 71.136719 C 136.804688 71.136719 140.058594 68.496094 140.058594 64.234375 L 140.070313 51.390625 L 145.648438 51.390625 C 147.621094 51.359375 149.292969 51.480469 150.601563 50.921875 C 151.433594 50.554688 152.117188 49.839844 152.703125 48.695313 L 158.878906 34.679688 C 158.976563 34.414063 159.183594 33.988281 159.449219 33.441406 C 159.761719 32.800781 160.152344 32.007813 160.554688 31.074219 C 160.871094 30.355469 161.234375 29.546875 161.617188 28.703125 L 162.808594 26.046875 C 163.226563 25.113281 163.636719 24.171875 164.089844 23.214844 C 164.289063 22.789063 164.484375 22.34375 164.679688 21.898438 C 164.929688 21.324219 165.179688 20.753906 165.4375 20.226563 L 171.144531 7.4375 C 171.859375 5.78125 171.734375 3.921875 170.808594 2.460938 C 169.828125 0.914063 168.199219 -0.00390625 166.449219 -0.00390625 "/>
</g>
</svg>
